<svg width="228" height="48" fill="none" xmlns="http://www.w3.org/2000/svg"><path d="M48 24c0 13.255-10.745 24-24 24S0 37.255 0 24 10.745 0 24 0s24 10.745 24 24Zm-36 0c0 6.627 5.373 12 12 12s12-5.373 12-12-5.373-12-12-12-12 5.373-12 12Z" fill="#4F46E5"/><path d="M12 44.785a24 24 0 0 1 0-41.57l6 10.393a12 12 0 0 0 0 20.784l-6 10.393Z" fill="#4338CA"/><path d="M12 3.215A24 24 0 0 1 48 24H36a12 12 0 0 0-18-10.392L12 3.215Z" fill="#6366F1"/><path d="M80.063 25.11c-.672-.844-1.422-1.477-2.25-1.9-.829-.437-1.805-.624-2.93-.562-.906-.062-1.735.063-2.485.375a5.841 5.841 0 0 0-1.921 1.313 6 6 0 0 0-1.243 2.016c-.296.765-.445 1.632-.445 2.601 0 .86.156 1.672.469 2.438a6.38 6.38 0 0 0 1.265 1.992 6.024 6.024 0 0 0 1.922 1.289c.75.312 1.563.5 2.438.562a7.032 7.032 0 0 0 1.992-.445 6.55 6.55 0 0 0 1.617-.937c.469-.391.867-.82 1.195-1.29.344-.484.61-.937.797-1.359l6.446 1.781c-.266.938-.727 1.914-1.383 2.93-.64 1.016-1.484 1.945-2.531 2.79-1.032.827-2.266 1.515-3.704 2.062-1.421.547-3.046.82-4.874.82-1.86 0-3.57-.336-5.133-1.008-1.563-.687-2.907-1.617-4.032-2.789-1.125-1.172-2.007-2.547-2.648-4.125-.625-1.578-.938-3.273-.938-5.086 0-1.797.32-3.46.961-4.992a12.59 12.59 0 0 1 2.696-4.031 12.04 12.04 0 0 1 4.054-2.696c1.579-.64 3.29-.93 5.133-.867a11.598 11.598 0 0 1 3.82.445 13.25 13.25 0 0 1 3.516 1.618h4.664v7.054h-6.469Zm9.28 3.656c0-1.766.321-3.422.962-4.97a12.543 12.543 0 0 1 2.672-4.054c1.14-1.156 2.5-2.07 4.078-2.742 1.578-.672 3.312-1.008 5.203-1.008 1.89 0 3.625.336 5.203 1.008 1.594.672 2.961 1.586 4.101 2.742a12.23 12.23 0 0 1 2.649 4.055c.641 1.547.961 3.203.961 4.969 0 1.765-.313 3.43-.938 4.992a12.177 12.177 0 0 1-2.625 4.078c-1.125 1.156-2.484 2.07-4.078 2.742-1.578.672-3.336 1.008-5.273 1.008-1.953 0-3.727-.336-5.32-1.008-1.579-.672-2.93-1.586-4.055-2.742a12.422 12.422 0 0 1-2.625-4.055c-.61-1.562-.914-3.234-.914-5.015Zm7.009 0c0 .922.156 1.773.468 2.554a6.38 6.38 0 0 0 1.266 1.992 5.99 5.99 0 0 0 1.875 1.313 5.69 5.69 0 0 0 2.297.469c.828 0 1.594-.149 2.297-.446a5.4 5.4 0 0 0 1.851-1.312 6.026 6.026 0 0 0 1.242-1.992c.297-.782.446-1.64.446-2.578 0-.97-.149-1.844-.446-2.625a5.724 5.724 0 0 0-1.242-1.993 5.028 5.028 0 0 0-1.851-1.242 5.571 5.571 0 0 0-2.297-.422 5.668 5.668 0 0 0-2.297.422 5.54 5.54 0 0 0-1.875 1.242 6.04 6.04 0 0 0-1.266 1.993c-.312.78-.468 1.656-.468 2.625Zm21.89-24.235h10.946v30.047h3.75V41h-14.696v-6.422h3.75V10.953h-3.75V4.531Zm18.586 24.235c0-1.766.32-3.422.961-4.97a12.545 12.545 0 0 1 2.672-4.054c1.141-1.156 2.5-2.07 4.078-2.742 1.578-.672 3.313-1.008 5.203-1.008 1.891 0 3.625.336 5.203 1.008 1.594.672 2.961 1.586 4.102 2.742a12.228 12.228 0 0 1 2.648 4.055c.641 1.547.961 3.203.961 4.969 0 1.765-.312 3.43-.937 4.992a12.208 12.208 0 0 1-2.625 4.078c-1.125 1.156-2.485 2.07-4.078 2.742-1.578.672-3.336 1.008-5.274 1.008-1.953 0-3.726-.336-5.32-1.008-1.578-.672-2.93-1.586-4.055-2.742a12.422 12.422 0 0 1-2.625-4.055c-.609-1.562-.914-3.234-.914-5.015Zm7.008 0c0 .922.156 1.773.469 2.554.312.766.734 1.43 1.265 1.992a5.99 5.99 0 0 0 1.875 1.313 5.701 5.701 0 0 0 2.297.469c.828 0 1.594-.149 2.297-.446a5.405 5.405 0 0 0 1.852-1.312 6.059 6.059 0 0 0 1.242-1.992c.297-.782.445-1.64.445-2.578 0-.97-.148-1.844-.445-2.625a5.753 5.753 0 0 0-1.242-1.993 5.032 5.032 0 0 0-1.852-1.242 5.571 5.571 0 0 0-2.297-.422 5.67 5.67 0 0 0-2.297.422 5.541 5.541 0 0 0-1.875 1.242 6.034 6.034 0 0 0-1.265 1.993c-.313.78-.469 1.656-.469 2.625Zm44.414-3.211h-6.586v-2.508c-.641 0-1.226.047-1.758.14-.531.079-1 .22-1.406.422a3.06 3.06 0 0 0-1.008.844c-.265.36-.453.805-.562 1.336v8.79h4.945V41h-15.844v-6.422h3.633V23.141h-3.586v-6.422h10.805v1.71a7.767 7.767 0 0 1 2.32-1.265c.859-.297 1.797-.445 2.813-.445 1.031 0 2.093.008 3.187.023 1.094.016 2.109.024 3.047.024v8.789Z" fill="#111827"/><path d="M202.781 16.719h4.43v6.14h-4.43v11.72h4.477V41h-15.07v-6.422h3.632V22.86h-3.679v-6.14h3.679v-4.032c0-1.421.25-2.671.75-3.75.5-1.078 1.164-1.984 1.992-2.718a8.657 8.657 0 0 1 2.907-1.664 10.544 10.544 0 0 1 3.445-.563c.891 0 1.688.07 2.391.211.703.125 1.32.29 1.851.492.532.203.977.422 1.336.657.375.234.672.453.891.656l-2.695 4.945a4.52 4.52 0 0 0-1.219-.633c-.453-.156-1.008-.234-1.664-.234-.422 0-.821.07-1.196.21a3.003 3.003 0 0 0-.961.61 2.851 2.851 0 0 0-.632 1.008c-.157.39-.235.852-.235 1.383v3.422Zm8.578 0h10.899v17.86h3.375V41h-14.274v-6.422h3.657V23.141h-3.657v-6.422Zm3.282-7.828c0-.579.101-1.118.304-1.618.219-.515.516-.96.891-1.335a4.239 4.239 0 0 1 1.312-.891 4.22 4.22 0 0 1 1.664-.328c.563 0 1.094.11 1.594.328.5.219.938.516 1.313.89.375.375.672.82.89 1.336.219.5.329 1.04.329 1.618 0 .578-.11 1.125-.329 1.64-.218.5-.515.938-.89 1.313a4.244 4.244 0 0 1-1.313.89c-.5.22-1.031.329-1.594.329a4.22 4.22 0 0 1-1.664-.329 4.24 4.24 0 0 1-1.312-.89 4.247 4.247 0 0 1-.891-1.313 4.437 4.437 0 0 1-.304-1.64Z" fill="#4F46E5"/></svg>